<?xml version="1.0" standalone="no"?>
<!DOCTYPE svg PUBLIC "-//W3C//DTD SVG 1.1//EN" "http://www.w3.org/Graphics/SVG/1.1/DTD/svg11.dtd" >
<svg>
<metadata>
Created by FontForge 20110222 at Mon Mar  7 11:21:11 2011
 By www-data
2009
</metadata>
<defs>
<font id="seattlesans" horiz-adv-x="240" >
  <font-face 
    font-family="Seattle Sans"
    font-weight="400"
    font-stretch="normal"
    units-per-em="700"
    panose-1="0 0 4 0 0 0 0 0 0 0"
    ascent="650"
    descent="-50"
    x-height="450"
    cap-height="600"
    bbox="-36 -150 704 713"
    underline-thickness="20"
    underline-position="-123"
    unicode-range="U+0020-2122"
  />
    <missing-glyph />
    <glyph glyph-name="space" unicode=" " horiz-adv-x="100" 
 />
    <glyph glyph-name="space" unicode="&#xa0;" horiz-adv-x="100" 
 />
    <glyph glyph-name="exclam" unicode="!" horiz-adv-x="90" 
d="M70 50h-50v-50h50v50zM70 600h-50l12 -500h25z" />
    <glyph glyph-name="quotedbl" unicode="&#x22;" horiz-adv-x="200" 
d="M175 458h-50v142h50v-142zM75 458h-50v142h50v-142z" />
    <glyph glyph-name="numbersign" unicode="#" horiz-adv-x="228" 
d="M208 245h-38v-38h-37v38h-38v-38h-37v38h-38v38h38v37h-38v38h38v37h37v-37h38v37h37v-37h38v-38h-38v-37h38v-38zM133 283v37h-38v-37h38z" />
    <glyph glyph-name="dollar" unicode="$" horiz-adv-x="190" 
d="M111 0h-32v600h32v-600zM170 145q0 -31 -22 -53t-53 -22t-53 22t-22 53v38h38v-38q0 -16 10.5 -26.5t26.5 -10.5t27 10.5t11 26.5v45l-103 180q-7 12 -10 30v45q0 31 22 53t53 22t53 -22t22 -53v-37h-37v37q0 16 -11 27t-27 11t-26.5 -11t-10.5 -27v-45l103 -182
q6 -11 9 -28v-45z" />
    <glyph glyph-name="percent" unicode="%" horiz-adv-x="360" 
d="M128 358q0 -18 -14.5 -34.5t-34.5 -16.5q-22 0 -35.5 16t-13.5 35v191q0 21 14.5 36t34.5 15t34.5 -15t14.5 -36h-25q0 10 -7 17t-17 7q-13 0 -18 -6t-6 -18v-190q-1 -11 5 -18t19 -7q10 0 17 8t7 16v191h25v-191zM329 242q0 18 -14.5 34.5t-34.5 16.5q-22 0 -35.5 -16
t-13.5 -35v-191q0 -21 14.5 -36t34.5 -15t34.5 15t14.5 36h-25q0 -10 -7 -17t-17 -7q-13 0 -18 6t-6 18v190q-1 11 5 18t19 7q10 0 17 -8t7 -16v-191h25v191zM315 600l-240 -600h-30l240 600h30z" />
    <glyph glyph-name="ampersand" unicode="&#x26;" 
d="M220 0h-43l-13 34q-17 -34 -62 -34q-37 0 -59 42t-22 106q0 58 13.5 104.5t34.5 80.5l-18 60t-10 72q-1 57 16 86t44 29q30 0 44.5 -32.5t12.5 -79.5q-2 -45 -10.5 -75t-31.5 -66l53 -175q7 52 7 107h-24v33h59q3 -114 -19 -210zM123 472q0 30 -4.5 48.5t-17.5 17.5
q-13 1 -17.5 -17.5t-5.5 -45.5q2 -32 5.5 -49.5l11.5 -57.5q15 37 20 55.5t8 48.5zM148 82l-60 195q-10 -20 -17.5 -57.5t-7.5 -71.5q1 -46 12.5 -74.5t32.5 -26.5q28 0 40 35z" />
    <glyph glyph-name="quotesingle" unicode="'" horiz-adv-x="90" 
d="M70 458h-50v142h50v-142z" />
    <glyph glyph-name="parenleft" unicode="(" horiz-adv-x="170" 
d="M150 -50h-50q-80 140 -80 350t80 350h50q-80 -141 -80 -350q0 -208 80 -350z" />
    <glyph glyph-name="parenright" unicode=")" horiz-adv-x="170" 
d="M20 -50h50q80 140 80 350t-80 350h-50q80 -141 80 -350q0 -208 -80 -350z" />
    <glyph glyph-name="asterisk" unicode="*" horiz-adv-x="260" 
d="M238 498l-85 -9l63 -63l-44 -32l-42 74l-42 -74l-45 36l60 60l-81 8l19 54l71 -30l-13 78h59l-13 -80l74 32z" />
    <glyph glyph-name="plus" unicode="+" 
d="M219 250h-74v-77h-50v77h-75v50h75v72h50v-72h74v-50z" />
    <glyph glyph-name="comma" unicode="," horiz-adv-x="90" 
d="M70 0l-50 -50v100h50v-50z" />
    <glyph glyph-name="hyphen" unicode="-" horiz-adv-x="190" 
d="M170 250h-150v50h150v-50z" />
    <glyph glyph-name="hyphen" unicode="&#xad;" horiz-adv-x="190" 
d="M170 250h-150v50h150v-50z" />
    <glyph glyph-name="period" unicode="." horiz-adv-x="90" 
d="M70 0h-50v50h50v-50z" />
    <glyph glyph-name="slash" unicode="/" 
d="M220 600l-150 -600h-50l150 600h50z" />
    <glyph glyph-name="zero" unicode="0" 
d="M220 100q0 -41 -29.5 -70.5t-70.5 -29.5t-70.5 29.5t-29.5 70.5v400q0 41 29.5 70.5t70.5 29.5t70.5 -29.5t29.5 -70.5v-400zM170 100v400q0 21 -14.5 35.5t-35.5 14.5t-35.5 -14.5t-14.5 -35.5v-400q0 -21 14.5 -35.5t35.5 -14.5t35.5 14.5t14.5 35.5z" />
    <glyph glyph-name="one" unicode="1" horiz-adv-x="170" 
d="M142 0h-50v530l-32 -32l-33 33l69 69h46v-600z" />
    <glyph glyph-name="two" unicode="2" 
d="M220 0h-200v49q1 18 6 34l144 357v60q0 21 -14.5 35.5t-35.5 14.5t-35.5 -14.5t-14.5 -35.5v-50h-50v50q0 41 29.5 70.5t70.5 29.5t70.5 -29.5t29.5 -70.5v-56q-1 -17 -5 -32l-145 -362h150v-50z" />
    <glyph glyph-name="three" unicode="3" 
d="M220 100q0 -41 -29.5 -70.5t-70.5 -29.5t-70.5 29.5t-29.5 70.5v50h50v-50q0 -21 14.5 -35.5t35.5 -14.5t35.5 14.5t14.5 35.5v125q0 21 -14.5 35.5t-35.5 14.5h-16v50h16q21 0 35.5 14.5t14.5 35.5v125q0 21 -14.5 35.5t-35.5 14.5t-35.5 -14.5t-14.5 -35.5v-50h-50v50
q0 41 29.5 70.5t70.5 29.5t70.5 -29.5t29.5 -70.5v-125q0 -45 -34 -75q34 -30 34 -75v-125z" />
    <glyph glyph-name="four" unicode="4" horiz-adv-x="250" 
d="M231 175h-32v-175h-50v175h-130v50l130 375v-144l-80 -231h80v375h50v-375h32v-50z" />
    <glyph glyph-name="five" unicode="5" 
d="M220 100q0 -41 -29.5 -70.5t-70.5 -29.5t-70.5 29.5t-29.5 70.5v50h50v-50q0 -21 14.5 -35.5t35.5 -14.5t35.5 14.5t14.5 35.5v175q0 21 -14.5 35.5t-35.5 14.5t-35.5 -14.5t-14.5 -35.5h-50v325h200v-50h-150v-188q23 13 50 13q41 0 70.5 -29.5t29.5 -70.5v-175z" />
    <glyph glyph-name="six" unicode="6" 
d="M20 324q1 20 6 43l73 233h51l-75 -238q15 13 45 13q41 0 70.5 -29.5t29.5 -70.5v-175q0 -41 -29.5 -70.5t-70.5 -29.5t-70.5 29.5t-29.5 70.5v224zM70 275v-175q0 -21 14.5 -35.5t35.5 -14.5t35.5 14.5t14.5 35.5v175q0 21 -14.5 35.5t-35.5 14.5t-35.5 -14.5
t-14.5 -35.5z" />
    <glyph glyph-name="seven" unicode="7" 
d="M220 550l-148 -550h-52l148 550h-98v-50h-50v100h200v-50z" />
    <glyph glyph-name="eight" unicode="8" 
d="M220 100q0 -41 -29.5 -70.5t-70.5 -29.5t-70.5 29.5t-29.5 70.5v125q0 45 34 75q-34 30 -34 75v125q0 41 29.5 70.5t70.5 29.5t70.5 -29.5t29.5 -70.5v-125q0 -45 -34 -75q34 -30 34 -75v-125zM170 375v125q0 21 -14.5 35.5t-35.5 14.5t-35.5 -14.5t-14.5 -35.5v-125
q0 -21 14.5 -35.5t35.5 -14.5t35.5 14.5t14.5 35.5zM170 100v125q0 21 -14.5 35.5t-35.5 14.5t-35.5 -14.5t-14.5 -35.5v-125q0 -21 14.5 -35.5t35.5 -14.5t35.5 14.5t14.5 35.5z" />
    <glyph glyph-name="nine" unicode="9" 
d="M220 276q-1 -20 -6 -43l-73 -233h-51l75 238q-15 -13 -45 -13q-41 0 -70.5 29.5t-29.5 70.5v175q0 41 29.5 70.5t70.5 29.5t70.5 -29.5t29.5 -70.5v-224zM170 325v175q0 21 -14.5 35.5t-35.5 14.5t-35.5 -14.5t-14.5 -35.5v-175q0 -21 14.5 -35.5t35.5 -14.5t35.5 14.5
t14.5 35.5z" />
    <glyph glyph-name="colon" unicode=":" horiz-adv-x="90" 
d="M70 400h-50v50h50v-50zM70 0h-50v50h50v-50z" />
    <glyph glyph-name="semicolon" unicode=";" horiz-adv-x="90" 
d="M70 400h-50v50h50v-50zM70 0l-50 -50v100h50v-50z" />
    <glyph glyph-name="equal" unicode="=" horiz-adv-x="270" 
d="M245 300h-220v50h220v-50zM245 200h-220v50h220v-50z" />
    <glyph glyph-name="question" unicode="?" 
d="M220 438q-1 -13 -5 -29l-70 -309h-50l75 340v60q0 21 -14.5 35.5t-35.5 14.5t-35.5 -14.5t-14.5 -35.5v-50h-50v50q0 41 29.5 70.5t70.5 29.5t70.5 -29.5t29.5 -70.5v-62zM145 0h-50v50h50v-50z" />
    <glyph glyph-name="A" unicode="A" horiz-adv-x="290" 
d="M270 0h-50l-25 150h-100l-25 -150h-50l100 600h50zM187 200l-42 250l-42 -250h84z" />
    <glyph glyph-name="B" unicode="B" 
d="M220 100q0 -41 -29.5 -70.5t-70.5 -29.5h-100v600h100q41 0 70.5 -29.5t29.5 -70.5v-125q0 -45 -34 -75q34 -30 34 -75v-125zM170 375v125q0 21 -14.5 35.5t-35.5 14.5h-50v-225h50q21 0 35.5 14.5t14.5 35.5zM170 100v125q0 21 -14.5 35.5t-35.5 14.5h-50v-225h50
q21 0 35.5 14.5t14.5 35.5z" />
    <glyph glyph-name="C" unicode="C" 
d="M220 100q0 -41 -29.5 -70.5t-70.5 -29.5t-70.5 29.5t-29.5 70.5v400q0 41 29.5 70.5t70.5 29.5t70.5 -29.5t29.5 -70.5v-50h-50v50q0 21 -14.5 35.5t-35.5 14.5t-35.5 -14.5t-14.5 -35.5v-400q0 -21 14.5 -35.5t35.5 -14.5t35.5 14.5t14.5 35.5v50h50v-50z" />
    <glyph glyph-name="D" unicode="D" 
d="M220 100q0 -41 -29.5 -70.5t-70.5 -29.5h-100v600h100q41 0 70.5 -29.5t29.5 -70.5v-400zM170 100v400q0 21 -14.5 35.5t-35.5 14.5h-50v-500h50q21 0 35.5 14.5t14.5 35.5z" />
    <glyph glyph-name="E" unicode="E" 
d="M220 0h-200v600h200v-50h-150v-225h110v-50h-110v-225h150v-50z" />
    <glyph glyph-name="F" unicode="F" 
d="M70 0h-50v600h200v-50h-150v-225h110v-50h-110v-275z" />
    <glyph glyph-name="G" unicode="G" 
d="M220 0h-100q-41 0 -70.5 29.5t-29.5 70.5v400q0 41 29.5 70.5t70.5 29.5t70.5 -29.5t29.5 -70.5v-50h-50v50q0 21 -14.5 35.5t-35.5 14.5t-35.5 -14.5t-14.5 -35.5v-400q0 -21 14.5 -35.5t35.5 -14.5h50v225h-50v50h100v-325z" />
    <glyph glyph-name="H" unicode="H" 
d="M220 0h-50v275h-100v-275h-50v600h50v-275h100v275h50v-600z" />
    <glyph glyph-name="I" unicode="I" horiz-adv-x="180" 
d="M15 0v50h50v500h-50v50h150v-50h-50v-500h50v-50h-150z" />
    <glyph glyph-name="J" unicode="J" 
d="M220 100q0 -41 -29.5 -70.5t-70.5 -29.5t-70.5 29.5t-29.5 70.5v50h50v-50q0 -21 14.5 -35.5t35.5 -14.5t35.5 14.5t14.5 35.5v500h50v-500z" />
    <glyph glyph-name="K" unicode="K" 
d="M220 0h-50l-64 286l-36 -109v-177h-50v600h50v-274l100 274h50l-80 -237z" />
    <glyph glyph-name="L" unicode="L" 
d="M220 0h-200v600h50v-550h150v-50z" />
    <glyph glyph-name="M" unicode="M" 
d="M120 173l-50 227v-400h-50v600h50l50 -250l50 250h50v-600h-50v400z" />
    <glyph glyph-name="N" unicode="N" 
d="M220 0h-50l-100 400v-400h-50v600h50l100 -400v400h50v-600z" />
    <glyph glyph-name="O" unicode="O" 
d="M220 100q0 -41 -29.5 -70.5t-70.5 -29.5t-70.5 29.5t-29.5 70.5v400q0 41 29.5 70.5t70.5 29.5t70.5 -29.5t29.5 -70.5v-400zM170 100v400q0 21 -14.5 35.5t-35.5 14.5t-35.5 -14.5t-14.5 -35.5v-400q0 -21 14.5 -35.5t35.5 -14.5t35.5 14.5t14.5 35.5z" />
    <glyph glyph-name="P" unicode="P" 
d="M220 375q0 -41 -29.5 -70.5t-70.5 -29.5h-50v-275h-50v600h100q41 0 70.5 -29.5t29.5 -70.5v-125zM170 375v125q0 21 -14.5 35.5t-35.5 14.5h-50v-225h50q21 0 35.5 14.5t14.5 35.5z" />
    <glyph glyph-name="Q" unicode="Q" 
d="M220 100q-2 -37 -16 -58l30 -30l-33 -33l-30 30q-22 -9 -51 -9q-41 0 -70.5 29.5t-29.5 70.5v400q0 41 29.5 70.5t70.5 29.5t70.5 -29.5t29.5 -70.5v-400zM170 100v400q0 21 -14.5 35.5t-35.5 14.5t-35.5 -14.5t-14.5 -35.5v-400q0 -21 14.5 -35.5t35.5 -14.5l7 1l-27 27
l33 33l29 -29q6 7 8 18z" />
    <glyph glyph-name="R" unicode="R" 
d="M220 0h-50l-50 275h-50v-275h-50v600h100q41 0 70.5 -29.5t29.5 -70.5v-125q-1 -34 -13.5 -57.5t-36.5 -38.5zM170 375v125q0 21 -14.5 35.5t-35.5 14.5h-50v-225h50q21 0 35.5 14.5t14.5 35.5z" />
    <glyph glyph-name="S" unicode="S" 
d="M220 100q0 -41 -29.5 -70.5t-70.5 -29.5t-70.5 29.5t-29.5 70.5v50h50v-50q0 -21 14.5 -35.5t35.5 -14.5t35.5 14.5t14.5 35.5v60l-136 234q-12 18 -14 45v61q0 41 29.5 70.5t70.5 29.5t70.5 -29.5t29.5 -70.5v-50h-50v50q0 21 -14.5 35.5t-35.5 14.5t-35.5 -14.5
t-14.5 -35.5v-60l137 -235q10 -21 13 -44v-61z" />
    <glyph glyph-name="T" unicode="T" 
d="M220 550h-75v-550h-50v550h-75v50h200v-50z" />
    <glyph glyph-name="U" unicode="U" 
d="M220 100q0 -41 -29.5 -70.5t-70.5 -29.5t-70.5 29.5t-29.5 70.5v500h50v-500q0 -21 14.5 -35.5t35.5 -14.5t35.5 14.5t14.5 35.5v500h50v-500z" />
    <glyph glyph-name="V" unicode="V" horiz-adv-x="290" 
d="M270 600l-100 -600h-50l-100 600h50l75 -450l75 450h50z" />
    <glyph glyph-name="W" unicode="W" horiz-adv-x="290" 
d="M145 300l-34 -300h-50l-41 600h50l22 -300l28 300h50l25 -300l25 300h50l-42 -600h-50z" />
    <glyph glyph-name="X" unicode="X" horiz-adv-x="290" 
d="M270 0h-55l-70 215l-70 -215h-55l98 300l-98 300h55l70 -215l70 215h55l-97 -300z" />
    <glyph glyph-name="Y" unicode="Y" horiz-adv-x="290" 
d="M270 600l-100 -303v-297h-50v297l-100 303h55l70 -215l70 215h55z" />
    <glyph glyph-name="Z" unicode="Z" 
d="M220 0h-200v50l145 500h-145v50h200v-50l-145 -500h145v-50z" />
    <glyph glyph-name="bracketleft" unicode="[" horiz-adv-x="140" 
d="M120 -50h-100v700h100v-50h-50v-600h50v-50z" />
    <glyph glyph-name="backslash" unicode="\" 
d="M220 0h-50l-150 600h50z" />
    <glyph glyph-name="bracketright" unicode="]" horiz-adv-x="140" 
d="M120 -50h-100v50h50v600h-50v50h100v-700z" />
    <glyph glyph-name="a" unicode="a" horiz-adv-x="190" 
d="M20 75q0 -31 22 -53t53 -22q24 0 37 14v-14h38v375q0 31 -22 53t-53 22t-53 -22t-22 -53v-37h37v37q0 16 11 27t27 11t26.5 -11t10.5 -27v-300q0 -16 -10.5 -26.5t-26.5 -10.5t-27 10.5t-11 26.5v140q1 28 16 45.5t38 19.5h21v38h-21q-36 0 -63.5 -28t-27.5 -76v-139z
" />
    <glyph glyph-name="b" unicode="b" horiz-adv-x="190" 
d="M20 75v37h38v-36q-1 -17 10 -27.5t27 -10.5t26.5 10.5t10.5 26.5v300q0 16 -10.5 27t-26.5 11t-27 -11t-10 -26v-38h-38v37q0 31 22 53t53 22t53 -22t22 -53v-300q0 -31 -22 -53t-53 -22t-53 22t-22 53zM58 0h-38v600h38v-600z" />
    <glyph glyph-name="c" unicode="c" horiz-adv-x="190" 
d="M170 75q0 -31 -22 -53t-53 -22t-53 22t-22 53v300q0 31 22 53t53 22t53 -22t22 -53v-37h-37v37q0 16 -11 27t-27 11t-26.5 -11t-10.5 -27v-300q0 -16 10.5 -26.5t26.5 -10.5t27 10.5t11 26.5v38h37v-38z" />
    <glyph glyph-name="d" unicode="d" horiz-adv-x="190" 
d="M170 75v37h-38v-36q1 -17 -10 -27.5t-27 -10.5t-26.5 10.5t-10.5 26.5v300q0 16 10.5 27t26.5 11t27 -11t10 -26v-38h38v37q0 31 -22 53t-53 22t-53 -22t-22 -53v-300q0 -31 22 -53t53 -22t53 22t22 53zM132 0h38v600h-38v-600z" />
    <glyph glyph-name="e" unicode="e" horiz-adv-x="190" 
d="M170 375q0 31 -22 53t-53 22t-53 -22t-22 -53v-300q0 -31 22 -53t53 -22t53 22t22 53v37h-37v-37q0 -16 -11 -27t-27 -11t-26.5 11t-10.5 27v300q0 16 10.5 26.5t26.5 10.5t27 -10.5t11 -26.5v-137h-75v-38h112v175z" />
    <glyph glyph-name="f" unicode="f" horiz-adv-x="190" 
d="M170 413h-56v-413h-38v413h-56v37h56v65q1 33 21.5 59t59.5 26h13v-38h-14q-17 1 -29 -11.5t-13 -36.5v-64h56v-37z" />
    <glyph glyph-name="g" unicode="g" horiz-adv-x="190" 
d="M170 75q0 -31 -22 -53t-53 -22t-53 22t-22 53v300q0 31 22 53t53 22t53 -22t22 -53v-37h-37v37q0 16 -11 27t-27 11t-26.5 -11t-10.5 -27v-300q0 -16 10.5 -26.5t26.5 -10.5t27 10.5t11 26.5v38h37v-38zM170 -75q0 -31 -22 -53t-53 -22t-53 22t-22 53v37h38v-37
q0 -16 10.5 -26.5t26.5 -10.5t27 10.5t11 26.5v525h37v-525z" />
    <glyph glyph-name="h" unicode="h" horiz-adv-x="190" 
d="M20 600h37v-166q14 16 38 16q31 0 53 -22t22 -53v-375h-38v375q0 16 -10.5 26.5t-26.5 10.5t-27 -10.5t-11 -28.5v-373h-37v600z" />
    <glyph glyph-name="i" unicode="i" horiz-adv-x="78" 
d="M58 524h-38v38h38v-38zM58 0h-38v450h38v-450z" />
    <glyph glyph-name="j" unicode="j" horiz-adv-x="78" 
d="M58 -73q-1 -33 -23 -55t-53 -22h-12v40h12q38 2 38 45v515h38v-523zM58 524h-38v38h38v-38z" />
    <glyph glyph-name="k" unicode="k" horiz-adv-x="190" 
d="M170 0h-40l-51 223l-21 -63v-160h-38v600h38v-328l68 178h44l-66 -168z" />
    <glyph glyph-name="l" unicode="l" horiz-adv-x="78" 
d="M58 0h-38v600h38v-600z" />
    <glyph glyph-name="m" unicode="m" horiz-adv-x="248" 
d="M142 379v-379h-38v383q-2 24 -22 26q-23 -1 -26 -26v-383h-37v450h37v-12q13 12 31 12q26 0 38 -23q12 23 43 23q24 0 42 -18t18 -52v-380h-37v383q-3 24 -23 26q-23 -1 -26 -30z" />
    <glyph glyph-name="n" unicode="n" horiz-adv-x="190" 
d="M20 450h37v-16q14 16 38 16q31 0 53 -22t22 -53v-375h-38v375q0 16 -10.5 26.5t-26.5 10.5t-27 -10.5t-11 -28.5v-373h-37v450z" />
    <glyph glyph-name="o" unicode="o" horiz-adv-x="190" 
d="M170 75q0 -31 -22 -53t-53 -22t-53 22t-22 53v300q0 31 22 53t53 22t53 -22t22 -53v-300zM133 75v300q0 16 -11 27t-27 11t-26.5 -11t-10.5 -27v-300q0 -16 10.5 -26.5t26.5 -10.5t27 10.5t11 26.5z" />
    <glyph glyph-name="p" unicode="p" horiz-adv-x="190" 
d="M20 375v-37h38v36q-1 17 10 27.5t27 10.5t26.5 -10.5t10.5 -26.5v-300q0 -16 -10.5 -27t-26.5 -11t-27 11t-10 26v38h-38v-37q0 -31 22 -53t53 -22t53 22t22 53v300q0 31 -22 53t-53 22t-53 -22t-22 -53zM58 450h-38v-600h38v600z" />
    <glyph glyph-name="q" unicode="q" horiz-adv-x="190" 
d="M170 375v-37h-38v36q1 17 -10 27.5t-27 10.5t-26.5 -10.5t-10.5 -26.5v-300q0 -16 10.5 -27t26.5 -11t27 11t10 26v38h38v-37q0 -31 -22 -53t-53 -22t-53 22t-22 53v300q0 31 22 53t53 22t53 -22t22 -53zM132 450h38v-600h-38v600z" />
    <glyph glyph-name="r" unicode="r" horiz-adv-x="190" 
d="M20 450h37v-16q14 16 38 16q31 0 53 -22t22 -53v-35h-38v35q0 16 -10.5 26.5t-26.5 10.5t-27 -10.5t-11 -28.5v-373h-37v450z" />
    <glyph glyph-name="s" unicode="s" horiz-adv-x="190" 
d="M170 75q0 -31 -22 -53t-53 -22t-53 22t-22 53v38h38v-38q0 -16 10.5 -26.5t26.5 -10.5t27 10.5t11 26.5v45l-103 180q-7 12 -10 30v45q0 31 22 53t53 22t53 -22t22 -53v-37h-37v37q0 16 -11 27t-27 11t-26.5 -11t-10.5 -27v-45l103 -182q6 -11 9 -28v-45z" />
    <glyph glyph-name="t" unicode="t" horiz-adv-x="190" 
d="M170 450h-56v150h-38v-151h-56v-36h56v-328q1 -33 21.5 -59t59.5 -26h13v38h-14q-17 -1 -29 11.5t-13 36.5v327h56v37z" />
    <glyph glyph-name="u" unicode="u" horiz-adv-x="190" 
d="M170 0h-37v16q-14 -16 -38 -16q-31 0 -53 22t-22 53v375h38v-375q0 -16 10.5 -26.5t26.5 -10.5t27 10.5t11 28.5v373h37v-450z" />
    <glyph glyph-name="v" unicode="v" horiz-adv-x="228" 
d="M208 450l-75 -450h-38l-75 450h38l56 -337l56 337h38z" />
    <glyph glyph-name="w" unicode="w" horiz-adv-x="238" 
d="M117 289l-27 -289h-36l-30 450h37l14 -248l25 248h37l24 -250l15 250h38l-32 -450h-37z" />
    <glyph glyph-name="x" unicode="x" horiz-adv-x="228" 
d="M208 0h-42l-52 162l-53 -162h-41l73 225l-73 225h41l53 -162l52 162h42l-74 -225z" />
    <glyph glyph-name="y" unicode="y" horiz-adv-x="228" 
d="M208 450l-102 -600h-37l26 150l-75 450h38l56 -337l56 337h38z" />
    <glyph glyph-name="z" unicode="z" horiz-adv-x="190" 
d="M170 0h-150v38l109 375h-109v37h150v-37l-109 -375h109v-38z" />
    <glyph glyph-name="braceleft" unicode="{" horiz-adv-x="190" 
d="M170 -50q-41 0 -70.5 29.5t-29.5 70.5v175q0 21 -14.5 35.5t-35.5 14.5v50q21 0 35.5 14.5t14.5 35.5v175q0 41 29.5 70.5t70.5 29.5v-50q-21 0 -35.5 -14.5t-14.5 -35.5v-175q0 -45 -34 -75q34 -30 34 -75v-175q0 -21 14.5 -35.5t35.5 -14.5v-50z" />
    <glyph glyph-name="bar" unicode="|" horiz-adv-x="60" 
d="M42 -50h-25v699h25v-699z" />
    <glyph glyph-name="braceright" unicode="}" horiz-adv-x="190" 
d="M170 275q-21 0 -35.5 -14.5t-14.5 -35.5v-175q0 -41 -29.5 -70.5t-70.5 -29.5v50q21 0 35.5 14.5t14.5 35.5v175q0 45 34 75q-34 30 -34 75v175q0 21 -14.5 35.5t-35.5 14.5v50q41 0 70.5 -29.5t29.5 -70.5v-175q0 -21 14.5 -35.5t35.5 -14.5v-50z" />
    <glyph glyph-name="exclamdown" unicode="&#xa1;" horiz-adv-x="90" 
d="M70 550h-50v50h50v-50zM70 0h-50l12 500h25z" />
    <glyph glyph-name="questiondown" unicode="&#xbf;" 
d="M20 162q1 13 5 29l70 309h50l-75 -340v-60q0 -21 14.5 -35.5t35.5 -14.5t35.5 14.5t14.5 35.5v50h50v-50q0 -41 -29.5 -70.5t-70.5 -29.5t-70.5 29.5t-29.5 70.5v62zM95 600h50v-50h-50v50z" />
    <glyph glyph-name="quoteleft" unicode="&#x2018;" horiz-adv-x="90" 
d="M20 550l50 50v-100h-50v50z" />
    <glyph glyph-name="quoteright" unicode="&#x2019;" horiz-adv-x="90" 
d="M70 550l-50 -50v100h50v-50z" />
    <glyph glyph-name="quotesinglbase" unicode="&#x201a;" horiz-adv-x="90" 
d="M70 0l-50 -50v100h50v-50z" />
    <glyph glyph-name="quotereversed" unicode="^" horiz-adv-x="228" 
d="M20 349l75 250h38l75 -250h-38l-56 188l-56 -188h-38z" />
    <glyph glyph-name="quotedblleft" unicode="&#x201c;" horiz-adv-x="200" 
d="M25 550l50 50v-100h-50v50zM125 550l50 50v-100h-50v50z" />
    <glyph glyph-name="quotedblright" unicode="&#x201d;" horiz-adv-x="200" 
d="M175 550l-50 -50v100h50v-50zM75 550l-50 -50v100h50v-50z" />
    <glyph glyph-name="quotedblbase" unicode="&#x201e;" horiz-adv-x="200" 
d="M175 0l-50 -50v100h50v-50zM75 0l-50 -50v100h50v-50z" />
    <glyph glyph-name="less" unicode="&#x3c;" horiz-adv-x="320" 
d="M305 144l-290 100v50l290 100v-50l-218 -75l218 -75v-50z" />
    <glyph glyph-name="greater" unicode="&#x3e;" horiz-adv-x="320" 
d="M15 144l290 100v50l-290 100v-50l218 -75l-218 -75v-50z" />
    <glyph glyph-name="cent" unicode="&#xa2;" horiz-adv-x="190" 
d="M111 0h-32v600h32v-600zM170 146q0 -31 -22 -53t-53 -22t-53 22t-22 53v300q0 31 22 53t53 22t53 -22t22 -53v-37h-37v37q0 16 -11 27t-27 11t-26.5 -11t-10.5 -27v-300q0 -16 10.5 -26.5t26.5 -10.5t27 10.5t11 26.5v38h37v-38z" />
    <glyph glyph-name="underscore" unicode="_" horiz-adv-x="200" 
d="M200 -90h-200v40h200v-40z" />
    <glyph glyph-name="grave" unicode="`" horiz-adv-x="130" 
d="M110 525h-28l-63 75h55z" />
    <glyph glyph-name="asciitilde" unicode="~" horiz-adv-x="480" 
d="M440 355q-13 -37 -44 -63q-32 -27 -75 -27q-33 0 -57 18l-60 39q-20 16 -40 16q-24 1 -42 -13q-19 -15 -30 -42l-52 26q13 38 45 64t76 27q31 0 52 -13l60 -39q23 -17 49 -18q23 0 39 12q17 13 27 39z" />
    <glyph glyph-name="Euro" unicode="&#x20ac;" horiz-adv-x="280" 
d="M185 329h-160v50h160v-50zM185 229h-160v50h160v-50zM255 100q0 -41 -29.5 -70.5t-70.5 -29.5t-70.5 29.5t-29.5 70.5v400q0 41 29.5 70.5t70.5 29.5t70.5 -29.5t29.5 -70.5v-50h-50v50q0 21 -14.5 35.5t-35.5 14.5t-35.5 -14.5t-14.5 -35.5v-400q0 -21 14.5 -35.5
t35.5 -14.5t35.5 14.5t14.5 35.5v50h50v-50z" />
    <glyph glyph-name="florin" unicode="&#x192;" horiz-adv-x="200" 
d="M20 -150v38h29q16 0 26.5 10.5t10.5 26.5v488h-56v37h56v65q1 33 21.5 59t59.5 26h13v-38h-14q-17 1 -29 -11.5t-13 -36.5v-64h56v-37h-56v-488q0 -31 -22 -53t-53 -22h-29z" />
    <glyph glyph-name="ellipsis" unicode="&#x2026;" horiz-adv-x="300" 
d="M275 0h-50v50h50v-50zM75 0h-50v50h50v-50zM175 0h-50v50h50v-50z" />
    <glyph glyph-name="perthousand" unicode="&#x2030;" horiz-adv-x="499" 
d="M133 358q0 -18 -14.5 -34.5t-34.5 -16.5q-22 0 -35.5 16t-13.5 35v191q0 21 14.5 36t34.5 15t34.5 -15t14.5 -36h-25q0 10 -7 17t-17 7q-13 0 -18 -6t-6 -18v-190q-1 -11 5 -18t19 -7q10 0 17 8t7 16v191h25v-191zM465 242q0 18 -14.5 34.5t-34.5 16.5q-22 0 -35.5 -16
t-13.5 -35v-191q0 -21 14.5 -36t34.5 -15t34.5 15t14.5 36h-25q0 -10 -7 -17t-17 -7q-13 0 -18 6t-6 18v190q-1 11 5 18t19 7q10 0 17 -8t7 -16v-191h25v191zM320 600l-240 -600h-30l240 600h30zM334 242q0 18 -14.5 34.5t-34.5 16.5q-22 0 -35.5 -16t-13.5 -35v-191
q0 -21 14.5 -36t34.5 -15t34.5 15t14.5 36h-25q0 -10 -7 -17t-17 -7q-13 0 -18 6t-6 18v190q-1 11 5 18t19 7q10 0 17 -8t7 -16v-191h25v191z" />
    <glyph glyph-name="circumflex" unicode="&#x2c6;" horiz-adv-x="180" 
d="M15 525l75 75l75 -75h-49l-27 27l-27 -27h-47z" />
    <glyph glyph-name="dagger" unicode="&#x2020;" horiz-adv-x="200" 
d="M113 411v-411h-29v411h-70v33h70v146h29v-146h72v-33h-72z" />
    <glyph glyph-name="daggerdbl" unicode="&#x2021;" horiz-adv-x="200" 
d="M113 411v-227h72v-33h-72v-151h-29v151h-70v32h70v228h-70v33h70v146h29v-146h72v-33h-72z" />
    <glyph glyph-name="Scaron" unicode="&#x160;" 
d="M45 700l75 -75l75 75h-49l-27 -27l-27 27h-47zM220 100q0 -41 -29.5 -70.5t-70.5 -29.5t-70.5 29.5t-29.5 70.5v50h50v-50q0 -21 14.5 -35.5t35.5 -14.5t35.5 14.5t14.5 35.5v60l-136 234q-12 18 -14 45v61q0 41 29.5 70.5t70.5 29.5t70.5 -29.5t29.5 -70.5v-50h-50v50
q0 21 -14.5 35.5t-35.5 14.5t-35.5 -14.5t-14.5 -35.5v-60l137 -235q10 -21 13 -44v-61z" />
    <glyph glyph-name="guilsinglleft" unicode="&#x2039;" horiz-adv-x="180" 
d="M109 95l-90 147l90 146h52l-83 -146l83 -147h-52z" />
    <glyph glyph-name="OE" unicode="&#x152;" horiz-adv-x="390" 
d="M220 100q0 -41 -29.5 -70.5t-70.5 -29.5t-70.5 29.5t-29.5 70.5v400q0 41 29.5 70.5t70.5 29.5t70.5 -29.5t29.5 -70.5v-400zM170 100v400q0 21 -14.5 35.5t-35.5 14.5t-35.5 -14.5t-14.5 -35.5v-400q0 -21 14.5 -35.5t35.5 -14.5t35.5 14.5t14.5 35.5zM370 0h-200v600
h200v-50h-150v-225h110v-50h-110v-225h150v-50z" />
    <glyph glyph-name="Zcaron" unicode="&#x17d;" 
d="M220 0h-200v50l145 500h-145v50h200v-50l-145 -500h145v-50zM45 700l75 -75l75 75h-49l-27 -27l-27 27h-47z" />
    <glyph glyph-name="bullet" unicode="&#x2022;" horiz-adv-x="300" 
d="M15 315q0 56 38 95q39 40 95 40q58 0 98 -39t40 -96t-40 -96q-41 -40 -98 -40q-56 0 -94 39q-39 40 -39 97z" />
    <glyph glyph-name="endash" unicode="&#x2013;" horiz-adv-x="380" 
d="M362 250h-344v50h344v-50z" />
    <glyph glyph-name="emdash" unicode="&#x2014;" horiz-adv-x="720" 
d="M704 250h-688v50h688v-50z" />
    <glyph glyph-name="tilde" unicode="&#x2dc;" horiz-adv-x="190" 
d="M21 540q-1 31 16.5 45t38.5 10l39 -17q23 -1 24 22h32q-2 -30 -18 -45t-38 -11l-40 17q-23 5 -23 -21h-31z" />
    <glyph glyph-name="trademark" unicode="&#x2122;" horiz-adv-x="290" 
d="M127 575h-39v-275h-26v275h-38v25h103v-25zM210 387l-28 113v-200h-27v300h27l28 -125l28 125h28v-300h-28v200z" />
    <glyph glyph-name="scaron" unicode="&#x161;" horiz-adv-x="190" 
d="M20 547l75 -75l75 75h-49l-27 -27l-27 27h-47zM170 75q0 -31 -22 -53t-53 -22t-53 22t-22 53v38h38v-38q0 -16 10.5 -26.5t26.5 -10.5t27 10.5t11 26.5v45l-103 180q-7 12 -10 30v45q0 31 22 53t53 22t53 -22t22 -53v-37h-37v37q0 16 -11 27t-27 11t-26.5 -11t-10.5 -27
v-45l103 -182q6 -11 9 -28v-45z" />
    <glyph glyph-name="guilsinglright" unicode="&#x203a;" horiz-adv-x="180" 
d="M71 95l90 147l-90 146h-52l83 -146l-83 -147h52z" />
    <glyph glyph-name="oe" unicode="&#x153;" horiz-adv-x="300" 
d="M169 75v300q0 31 -22 53t-53 22t-53 -22t-22 -53v-300q0 -31 22 -53t53 -22t53 22t22 53zM131 75q1 -16 -10 -26.5t-27 -10.5t-26.5 10.5t-10.5 26.5v300q0 16 10.5 27t26.5 11t27 -11t10 -27v-300zM281 375q0 31 -22 53t-53 22t-53 -22t-22 -53v-300q0 -31 22 -53
t53 -22t53 22t22 53v37h-37v-37q0 -16 -11 -27t-27 -11t-26.5 11t-10.5 27v300q0 16 10.5 26.5t26.5 10.5t27 -10.5t11 -26.5v-137h-75v-38h112v175z" />
    <glyph glyph-name="zcaron" unicode="&#x17e;" horiz-adv-x="190" 
d="M170 0h-150v38l109 375h-109v37h150v-37l-109 -375h109v-38zM20 547l75 -75l75 75h-49l-27 -27l-27 27h-47z" />
    <glyph glyph-name="Ydieresis" unicode="&#x178;" horiz-adv-x="290" 
d="M220 631h-50v50h50v-50zM120 631h-50v50h50v-50zM270 600l-100 -303v-297h-50v297l-100 303h55l70 -215l70 215h55z" />
    <glyph glyph-name="at" unicode="@" horiz-adv-x="580" 
d="M350 208v217q0 26 -18 43t-43 17t-42.5 -17t-21.5 -44v-26h39v25q3 11 8.5 16.5t15.5 5.5q10 -1 14 -6.5t6 -13.5v-212q-1 -10 -5 -13.5t-14 -6.5q-10 2 -14.5 6.5t-5.5 13.5v70q0 13 8.5 22.5t19.5 11.5h11v52h-14q-22 0 -44.5 -22t-22.5 -44v-90q1 -25 19 -43t43 -18
q29 0 48 21q30 -34 77 -34q63 0 104 64q36 56 36 134q0 110 -66 177q-75 74 -187 74q-116 0 -197 -90q-78 -87 -78 -210q1 -133 86 -212q83 -75 198 -76q102 1 162 37l-16 31q-56 -33 -145 -30q-109 3 -175 67q-66 66 -66 183q-1 107 65 180q67 74 166 77q103 -3 159 -59
q56 -58 55 -149q0 -66 -28 -113q-28 -48 -72 -51q-40 -3 -65 35z" />
    <glyph glyph-name="copyright" unicode="&#xa9;" horiz-adv-x="600" 
d="M300 590q75 0 143 -37t104 -104q38 -68 38 -143q0 -76 -38 -144t-105.5 -105t-141.5 -37q-77 0 -145 38.5t-103.5 105.5t-35.5 142q0 77 37.5 145t105 103.5t141.5 35.5zM300 545q-64 0 -120 -32.5t-89 -87.5q-31 -57 -31 -119q0 -65 33 -120.5t89 -87t118 -31.5
t118.5 32.5t88 88.5t31.5 118q0 64 -33 121t-90 87.5t-115 30.5zM391 260l46 -14q-12 -49 -49 -77t-88 -28q-73 0 -113 47q-38 44 -38 117q0 104 74 143q34 18 78 18q105 0 131 -89l-46 -11q-23 59 -86 59q-49 0 -75 -37q-24 -33 -24 -84q0 -50 23 -81q25 -36 75 -36
q33 0 58.5 19.5t33.5 53.5z" />
    <glyph glyph-name="registered" unicode="&#xae;" horiz-adv-x="600" 
d="M299 600q69 0 130 -34t93 -93q34 -61 34 -129t-34.5 -129.5t-95 -94.5t-127.5 -33q-70 0 -130.5 35t-93 95t-32.5 127q0 69 34.5 130.5t95.5 93.5t126 32zM299 554q-56 0 -105 -28.5t-78 -76.5q-26 -52 -26 -106q0 -57 28 -106.5t77.5 -77t103.5 -27.5q56 0 106 28.5
t78.5 78t28.5 104.5q0 57 -30.5 107.5t-80 77t-102.5 26.5zM186 202v276h95q39 0 58 -3q33 -8 48 -31q12 -19 12 -41q0 -32 -19 -54q-17 -22 -51 -27l90 -120h-49l-93 117h-47v-117h-44zM230 358h56q29 -1 43 6q25 9 23 36q0 26 -26 36q-12 6 -45 6h-51v-84z" />
    <glyph glyph-name="currency" unicode="&#xa4;" horiz-adv-x="400" 
d="M81 365l-46 46l36 39l49 -45q34 23 78 23q46 0 80 -23l48 45l38 -39l-47 -46q24 -37 24 -79t-24 -80l47 -45l-38 -40l-48 46q-34 -24 -80 -24q-44 0 -78 24l-49 -46l-36 40l46 45q-24 38 -24 80t24 79zM111 286q0 -36 25.5 -62t61.5 -26q37 0 62.5 26t25.5 62t-25.5 62
t-62.5 26q-36 0 -61.5 -26t-25.5 -62z" />
    <glyph glyph-name="sterling" unicode="&#xa3;" horiz-adv-x="270" 
d="M45 500v-200h-20v-50h20v-200h-20v-50h220v50h-150v200h70v50h-70v200q0 21 14.5 35.5t35.5 14.5t35.5 -14.5t14.5 -35.5v-50h50v50q0 41 -29.5 70.5t-70.5 29.5t-70.5 -29.5t-29.5 -70.5z" />
    <glyph glyph-name="yen" unicode="&#xa5;" horiz-adv-x="290" 
d="M225 273h-160v50h160v-50zM225 173h-160v50h160v-50zM270 600l-100 -303v-297h-50v297l-100 303h55l70 -215l70 215h55z" />
    <glyph glyph-name="brokenbar" unicode="&#xa6;" horiz-adv-x="60" 
d="M42 -50h-25v261h25v-261zM42 388h-25v261h25v-261z" />
    <glyph glyph-name="section" unicode="&#xa7;" horiz-adv-x="190" 
d="M170 -3q-1 -32 -23 -54t-53 -22t-53 22t-22 53v38h38v-38q0 -16 10.5 -26.5t26.5 -10.5t27 10.5t11 26.5v45l-80 106q-12 18 -21.5 36.5t-11.5 42.5v70q0 31 22 53t51 20l-62 82q-7 12 -10 30v45q0 31 22 53t53 22t53 -22t22 -53v-37h-37v37q0 16 -11 27t-27 11
t-26.5 -11t-10.5 -27v-45l77 -104q16 -20 25 -40t10 -43v-68q0 -31 -22 -53t-51 -21l63 -83q7 -13 10 -28v-44zM57 229q1 -19 11.5 -29.5t26.5 -10.5t27 10.5t10 25.5v71q0 16 -11 27t-27 11t-26.5 -11t-10.5 -27v-67z" />
    <glyph glyph-name="dieresis" unicode="&#xa8;" horiz-adv-x="190" 
d="M170 550h-50v50h50v-50zM70 550h-50v50h50v-50z" />
    <glyph glyph-name="ordfeminine" unicode="&#xaa;" horiz-adv-x="150" 
d="M23 263h103v-27h-103v27zM23 350q0 -20 14.5 -35t36.5 -15q16 0 25 10v-10h27v250q0 21 -15.5 35.5t-36.5 14.5q-22 0 -36.5 -14.5t-14.5 -35.5v-24h24v24q0 11 8 18.5t19 7.5t18 -7.5t7 -18.5v-200q0 -10 -7 -17t-18 -7t-19 7t-8 17v91q3 22 13 33t25 12h14v26h-14
q-25 0 -43.5 -22t-18.5 -47v-93z" />
    <glyph glyph-name="ordmasculine" unicode="&#xba;" horiz-adv-x="150" 
d="M126 349q0 -21 -15 -35t-37 -14q-21 0 -36 14t-15 35v203q0 20 15 34t36 14q22 0 37 -14t15 -34v-203zM101 349v203q0 10 -7.5 17.5t-19.5 7.5q-11 0 -18 -7.5t-7 -17.5v-203q0 -11 7 -18t18 -7q12 0 19.5 7t7.5 18zM23 263h103v-27h-103v27z" />
    <glyph glyph-name="uni00B9" unicode="&#xb9;" horiz-adv-x="110" 
d="M87 300h-28v265l-19 -19l-17 17l37 37h27v-300z" />
    <glyph glyph-name="uni00B2" unicode="&#xb2;" horiz-adv-x="150" 
d="M126 300h-103v25q0 9 3 17l74 178v30q0 11 -7.5 18t-18.5 7t-18.5 -7t-7.5 -18v-25h-25v25q0 21 15 35.5t36 14.5t36.5 -14.5t15.5 -35.5v-28q-1 -8 -3 -16l-75 -181h78v-25z" />
    <glyph glyph-name="uni00B3" unicode="&#xb3;" horiz-adv-x="150" 
d="M126 350q0 -20 -15.5 -35t-36.5 -15t-36 15t-15 35v25h25v-25q0 -10 7.5 -17.5t18.5 -7.5t18.5 7.5t7.5 17.5v63q0 10 -7.5 17.5t-18.5 7.5h-8v25h8q11 0 18.5 7t7.5 18v62q0 11 -7.5 18t-18.5 7t-18.5 -7t-7.5 -18v-25h-25v25q0 21 15 35.5t36 14.5t36.5 -14.5
t15.5 -35.5v-62q0 -23 -18 -38q18 -15 18 -37v-63z" />
    <glyph glyph-name="onequarter" unicode="&#xbc;" horiz-adv-x="420" 
d="M385 88h-20v-88h-29v88h-74v25l74 187v-72l-46 -115h46v187h29v-187h20v-25zM99 300h-28v265l-19 -19l-17 17l37 37h27v-300zM332 600l-240 -600h-30l240 600h30z" />
    <glyph glyph-name="onehalf" unicode="&#xbd;" horiz-adv-x="420" 
d="M102 300h-28v265l-19 -19l-17 17l37 37h27v-300zM335 600l-240 -600h-30l240 600h30zM381 0h-103v25q0 9 3 17l74 178v30q0 11 -7.5 18t-18.5 7t-18.5 -7t-7.5 -18v-25h-25v25q0 21 15 35.5t36 14.5t36.5 -14.5t15.5 -35.5v-28q-1 -8 -3 -16l-75 -181h78v-25z" />
    <glyph glyph-name="threequarters" unicode="&#xbe;" horiz-adv-x="440" 
d="M406 88h-20v-88h-29v88h-74v25l74 187v-72l-46 -115h46v187h29v-187h20v-25zM353 600l-240 -600h-30l240 600h30zM137 350q0 -20 -15.5 -35t-36.5 -15t-36 15t-15 35v25h25v-25q0 -10 7.5 -17.5t18.5 -7.5t18.5 7.5t7.5 17.5v63q0 10 -7.5 17.5t-18.5 7.5h-8v25h8
q11 0 18.5 7t7.5 18v62q0 11 -7.5 18t-18.5 7t-18.5 -7t-7.5 -18v-25h-25v25q0 21 15 35.5t36 14.5t36.5 -14.5t15.5 -35.5v-62q0 -23 -18 -38q18 -15 18 -37v-63z" />
    <glyph glyph-name="guillemotleft" unicode="&#xab;" horiz-adv-x="290" 
d="M217 95l-90 147l90 146h52l-83 -146l83 -147h-52zM110 95l-90 147l90 146h52l-83 -146l83 -147h-52z" />
    <glyph glyph-name="logicalnot" unicode="&#xac;" horiz-adv-x="380" 
d="M362 150h-50v100h-294v50h344v-150z" />
    <glyph glyph-name="macron" unicode="&#xaf;" horiz-adv-x="200" 
d="M180 570h-160v30h160v-30z" />
    <glyph glyph-name="degree" unicode="&#xb0;" horiz-adv-x="230" 
d="M213 501h-36q1 25 -17.5 43t-44.5 18t-44.5 -17.5t-18.5 -43.5q0 -25 18.5 -43.5t44.5 -18.5t44.5 18.5t17.5 43.5h36q0 -40 -29 -69t-69 -29t-68.5 29t-28.5 69q0 41 28 69t69 28q39 0 68.5 -28.5t29.5 -68.5z" />
    <glyph glyph-name="plusminus" unicode="&#xb1;" 
d="M219 73h-199v50h199v-50zM219 250h-74v-77h-50v77h-75v50h75v72h50v-72h74v-50z" />
    <glyph glyph-name="acute" unicode="&#xb4;" horiz-adv-x="130" 
d="M19 525h28l63 75h-55z" />
    <glyph glyph-name="uni00B5" unicode="&#xb5;" horiz-adv-x="190" 
d="M20 -75h37v91q14 -16 38 -16q18 -1 37 16v-16h38v450h-38v-375q0 -16 -10.5 -26.5t-26.5 -10.5t-27 10.5t-11 28.5v373h-37v-525z" />
    <glyph glyph-name="paragraph" unicode="&#xb6;" horiz-adv-x="260" 
d="M95 0v404q-39 1 -60 24t-21 43v58q1 25 25.5 48t59.5 23h148v-39h-31v-561h-37v562h-46v-562h-38z" />
    <glyph glyph-name="periodcentered" unicode="&#xb7;" horiz-adv-x="90" 
d="M70 300h-50v50h50v-50z" />
    <glyph glyph-name="cedilla" unicode="&#xb8;" horiz-adv-x="160" 
d="M16 -108l15 31h61q19 1 19 17q-1 16 -20 16h-24v44h25v-17h4q18 0 32.5 -10t15.5 -35q0 -22 -13.5 -34t-33.5 -12h-81z" />
    <glyph glyph-name="guillemotright" unicode="&#xbb;" horiz-adv-x="290" 
d="M72 95l90 147l-90 146h-52l83 -146l-83 -147h52zM179 95l90 147l-90 146h-52l83 -146l-83 -147h52z" />
    <glyph glyph-name="Agrave" unicode="&#xc0;" horiz-adv-x="290" 
d="M270 0h-50l-25 150h-100l-25 -150h-50l100 600h50zM187 200l-42 250l-42 -250h84zM163 621h-28l-63 75h55z" />
    <glyph glyph-name="Aacute" unicode="&#xc1;" horiz-adv-x="290" 
d="M187 200l-42 250l-42 -250h84zM123 621h28l63 75h-55zM270 0h-50l-25 150h-100l-25 -150h-50l100 600h50z" />
    <glyph glyph-name="Acircumflex" unicode="&#xc2;" horiz-adv-x="290" 
d="M70 625l75 75l75 -75h-49l-27 27l-27 -27h-47zM270 0h-50l-25 150h-100l-25 -150h-50l100 600h50zM187 200l-42 250l-42 -250h84z" />
    <glyph glyph-name="Atilde" unicode="&#xc3;" horiz-adv-x="290" 
d="M187 200l-42 250l-42 -250h84zM270 0h-50l-25 150h-100l-25 -150h-50l100 600h50zM71 627q-1 31 16.5 45t38.5 10l39 -17q23 -1 24 22h32q-2 -30 -18 -45t-38 -11l-40 17q-23 5 -23 -21h-31z" />
    <glyph glyph-name="Adieresis" unicode="&#xc4;" horiz-adv-x="290" 
d="M270 0h-50l-25 150h-100l-25 -150h-50l100 600h50zM187 200l-42 250l-42 -250h84zM120 631h-50v50h50v-50zM220 631h-50v50h50v-50z" />
    <glyph glyph-name="Aring" unicode="&#xc5;" horiz-adv-x="290" 
d="M201 657h-21q0 14 -11 24.5t-25 9.5q-16 0 -24.5 -10t-8.5 -25q0 -12 9 -22t25 -11q16 0 25.5 9.5t9.5 24.5h21q0 -23 -17 -40t-40 -17t-39.5 17t-16.5 40t16 39.5t40 16.5q22 0 39.5 -17t17.5 -39zM270 0h-50l-25 150h-100l-25 -150h-50l100 600h50zM187 200l-42 250
l-42 -250h84z" />
    <glyph glyph-name="AE" unicode="&#xc6;" horiz-adv-x="470" 
d="M247 507l-103 -307h103v-50h-120l-52 -150h-52l201 600h223v-50h-150v-225h110v-50h-110v-225h150v-50h-200v507z" />
    <glyph glyph-name="Ccedilla" unicode="&#xc7;" 
d="M56 -108l15 31h61q19 1 19 17q-1 16 -20 16h-24v44h25v-17h4q18 0 32.5 -10t15.5 -35q0 -22 -13.5 -34t-33.5 -12h-81zM220 100q0 -41 -29.5 -70.5t-70.5 -29.5t-70.5 29.5t-29.5 70.5v400q0 41 29.5 70.5t70.5 29.5t70.5 -29.5t29.5 -70.5v-50h-50v50q0 21 -14.5 35.5
t-35.5 14.5t-35.5 -14.5t-14.5 -35.5v-400q0 -21 14.5 -35.5t35.5 -14.5t35.5 14.5t14.5 35.5v50h50v-50z" />
    <glyph glyph-name="Egrave" unicode="&#xc8;" 
d="M165 621h-28l-63 75h55zM220 0h-200v600h200v-50h-150v-225h110v-50h-110v-225h150v-50z" />
    <glyph glyph-name="Eacute" unicode="&#xc9;" 
d="M220 0h-200v600h200v-50h-150v-225h110v-50h-110v-225h150v-50zM74 621h28l63 75h-55z" />
    <glyph glyph-name="Ecircumflex" unicode="&#xca;" 
d="M45 624l75 75l75 -75h-49l-27 27l-27 -27h-47zM220 0h-200v600h200v-50h-150v-225h110v-50h-110v-225h150v-50z" />
    <glyph glyph-name="Edieresis" unicode="&#xcb;" 
d="M95 631h-50v50h50v-50zM195 631h-50v50h50v-50zM220 0h-200v600h200v-50h-150v-225h110v-50h-110v-225h150v-50z" />
    <glyph glyph-name="Igrave" unicode="&#xcc;" horiz-adv-x="180" 
d="M135 621h-28l-63 75h55zM165 0v50h-50v500h50v50h-150v-50h50v-500h-50v-50h150z" />
    <glyph glyph-name="Iacute" unicode="&#xcd;" horiz-adv-x="180" 
d="M45 621h28l63 75h-55zM15 0v50h50v500h-50v50h150v-50h-50v-500h50v-50h-150z" />
    <glyph glyph-name="Icircumflex" unicode="&#xce;" horiz-adv-x="180" 
d="M15 625l75 75l75 -75h-49l-27 27l-27 -27h-47zM15 0v50h50v500h-50v50h150v-50h-50v-500h50v-50h-150z" />
    <glyph glyph-name="Idieresis" unicode="&#xcf;" horiz-adv-x="180" 
d="M65 631h-50v50h50v-50zM165 631h-50v50h50v-50zM15 0v50h50v500h-50v50h150v-50h-50v-500h50v-50h-150z" />
    <glyph glyph-name="Eth" unicode="&#xd0;" horiz-adv-x="280" 
d="M255 100q0 -41 -29.5 -70.5t-70.5 -29.5h-100v600h100q41 0 70.5 -29.5t29.5 -70.5v-400zM205 100v400q0 21 -14.5 35.5t-35.5 14.5h-50v-500h50q21 0 35.5 14.5t14.5 35.5zM144 282h-120v50h120v-50z" />
    <glyph glyph-name="Ntilde" unicode="&#xd1;" 
d="M46 627q-1 31 16.5 45t38.5 10l39 -17q23 -1 24 22h32q-2 -30 -18 -45t-38 -11l-40 17q-23 5 -23 -21h-31zM220 0h-50l-100 400v-400h-50v600h50l100 -400v400h50v-600z" />
    <glyph glyph-name="Ograve" unicode="&#xd2;" 
d="M220 100q0 -41 -29.5 -70.5t-70.5 -29.5t-70.5 29.5t-29.5 70.5v400q0 41 29.5 70.5t70.5 29.5t70.5 -29.5t29.5 -70.5v-400zM170 100v400q0 21 -14.5 35.5t-35.5 14.5t-35.5 -14.5t-14.5 -35.5v-400q0 -21 14.5 -35.5t35.5 -14.5t35.5 14.5t14.5 35.5zM165 621h-28
l-63 75h55z" />
    <glyph glyph-name="Oacute" unicode="&#xd3;" 
d="M220 100q0 -41 -29.5 -70.5t-70.5 -29.5t-70.5 29.5t-29.5 70.5v400q0 41 29.5 70.5t70.5 29.5t70.5 -29.5t29.5 -70.5v-400zM170 100v400q0 21 -14.5 35.5t-35.5 14.5t-35.5 -14.5t-14.5 -35.5v-400q0 -21 14.5 -35.5t35.5 -14.5t35.5 14.5t14.5 35.5zM74 621h28l63 75
h-55z" />
    <glyph glyph-name="Ocircumflex" unicode="&#xd4;" 
d="M220 100q0 -41 -29.5 -70.5t-70.5 -29.5t-70.5 29.5t-29.5 70.5v400q0 41 29.5 70.5t70.5 29.5t70.5 -29.5t29.5 -70.5v-400zM170 100v400q0 21 -14.5 35.5t-35.5 14.5t-35.5 -14.5t-14.5 -35.5v-400q0 -21 14.5 -35.5t35.5 -14.5t35.5 14.5t14.5 35.5zM45 624l75 75
l75 -75h-49l-27 27l-27 -27h-47z" />
    <glyph glyph-name="Otilde" unicode="&#xd5;" 
d="M220 100q0 -41 -29.5 -70.5t-70.5 -29.5t-70.5 29.5t-29.5 70.5v400q0 41 29.5 70.5t70.5 29.5t70.5 -29.5t29.5 -70.5v-400zM170 100v400q0 21 -14.5 35.5t-35.5 14.5t-35.5 -14.5t-14.5 -35.5v-400q0 -21 14.5 -35.5t35.5 -14.5t35.5 14.5t14.5 35.5zM46 627
q-1 31 16.5 45t38.5 10l39 -17q23 -1 24 22h32q-2 -30 -18 -45t-38 -11l-40 17q-23 5 -23 -21h-31z" />
    <glyph glyph-name="Odieresis" unicode="&#xd6;" 
d="M95 631h-50v50h50v-50zM195 631h-50v50h50v-50zM170 100v400q0 21 -14.5 35.5t-35.5 14.5t-35.5 -14.5t-14.5 -35.5v-400q0 -21 14.5 -35.5t35.5 -14.5t35.5 14.5t14.5 35.5zM220 100q0 -41 -29.5 -70.5t-70.5 -29.5t-70.5 29.5t-29.5 70.5v400q0 41 29.5 70.5t70.5 29.5
t70.5 -29.5t29.5 -70.5v-400z" />
    <glyph glyph-name="multiply" unicode="&#xd7;" horiz-adv-x="270" 
d="M237 317l-33 33l-171 -171l33 -33zM33 317l171 -171l33 33l-171 171z" />
    <glyph glyph-name="Oslash" unicode="&#xd8;" 
d="M220 100q0 -41 -29.5 -70.5t-70.5 -29.5t-70.5 29.5t-29.5 70.5v400q0 41 29.5 70.5t70.5 29.5t70.5 -29.5t29.5 -70.5v-400zM170 100v400q0 21 -14.5 35.5t-35.5 14.5t-35.5 -14.5t-14.5 -35.5v-400q0 -21 14.5 -35.5t35.5 -14.5t35.5 14.5t14.5 35.5zM20 0l160 601h40
l-160 -601h-40z" />
    <glyph glyph-name="Ugrave" unicode="&#xd9;" 
d="M220 100q0 -41 -29.5 -70.5t-70.5 -29.5t-70.5 29.5t-29.5 70.5v500h50v-500q0 -21 14.5 -35.5t35.5 -14.5t35.5 14.5t14.5 35.5v500h50v-500zM165 621h-28l-63 75h55z" />
    <glyph glyph-name="Uacute" unicode="&#xda;" 
d="M220 100q0 -41 -29.5 -70.5t-70.5 -29.5t-70.5 29.5t-29.5 70.5v500h50v-500q0 -21 14.5 -35.5t35.5 -14.5t35.5 14.5t14.5 35.5v500h50v-500zM74 621h28l63 75h-55z" />
    <glyph glyph-name="Ucircumflex" unicode="&#xdb;" 
d="M220 100q0 -41 -29.5 -70.5t-70.5 -29.5t-70.5 29.5t-29.5 70.5v500h50v-500q0 -21 14.5 -35.5t35.5 -14.5t35.5 14.5t14.5 35.5v500h50v-500zM45 624l75 75l75 -75h-49l-27 27l-27 -27h-47z" />
    <glyph glyph-name="Udieresis" unicode="&#xdc;" 
d="M95 631h-50v50h50v-50zM195 631h-50v50h50v-50zM220 100q0 -41 -29.5 -70.5t-70.5 -29.5t-70.5 29.5t-29.5 70.5v500h50v-500q0 -21 14.5 -35.5t35.5 -14.5t35.5 14.5t14.5 35.5v500h50v-500z" />
    <glyph glyph-name="Yacute" unicode="&#xdd;" horiz-adv-x="290" 
d="M100 621h28l63 75h-55zM270 600l-100 -303v-297h-50v297l-100 303h55l70 -215l70 215h55z" />
    <glyph glyph-name="Thorn" unicode="&#xde;" 
d="M220 265q0 -41 -29.5 -70.5t-70.5 -29.5h-50v-165h-50v600h50v-110h50q41 0 70.5 -29.5t29.5 -70.5v-125zM170 265v125q0 21 -14.5 35.5t-35.5 14.5h-50v-225h50q21 0 35.5 14.5t14.5 35.5z" />
    <glyph glyph-name="germandbls" unicode="&#xdf;" 
d="M220 100q0 -41 -29.5 -70.5t-70.5 -29.5h-16v50h16q21 0 35.5 14.5t14.5 35.5v125q0 21 -14.5 35.5t-35.5 14.5h-16v50h16q21 0 35.5 14.5t14.5 35.5v125q0 21 -14.5 35.5t-35.5 14.5t-35.5 -14.5t-14.5 -35.5v-500h-50v500q0 41 29.5 70.5t70.5 29.5t70.5 -29.5
t29.5 -70.5v-125q0 -45 -34 -75q34 -30 34 -75v-125z" />
    <glyph glyph-name="agrave" unicode="&#xe0;" horiz-adv-x="190" 
d="M20 75q0 -31 22 -53t53 -22q24 0 37 14v-14h38v375q0 31 -22 53t-53 22t-53 -22t-22 -53v-37h37v37q0 16 11 27t27 11t26.5 -11t10.5 -27v-300q0 -16 -10.5 -26.5t-26.5 -10.5t-27 10.5t-11 26.5v140q1 28 16 45.5t38 19.5h21v38h-21q-36 0 -63.5 -28t-27.5 -76v-139z
M141 480h-28l-63 75h55z" />
    <glyph glyph-name="aacute" unicode="&#xe1;" horiz-adv-x="190" 
d="M50 480h28l63 75h-55zM20 75q0 -31 22 -53t53 -22q24 0 37 14v-14h38v375q0 31 -22 53t-53 22t-53 -22t-22 -53v-37h37v37q0 16 11 27t27 11t26.5 -11t10.5 -27v-300q0 -16 -10.5 -26.5t-26.5 -10.5t-27 10.5t-11 26.5v140q1 28 16 45.5t38 19.5h21v38h-21
q-36 0 -63.5 -28t-27.5 -76v-139z" />
    <glyph glyph-name="acircumflex" unicode="&#xe2;" horiz-adv-x="190" 
d="M20 75q0 -31 22 -53t53 -22q24 0 37 14v-14h38v375q0 31 -22 53t-53 22t-53 -22t-22 -53v-37h37v37q0 16 11 27t27 11t26.5 -11t10.5 -27v-300q0 -16 -10.5 -26.5t-26.5 -10.5t-27 10.5t-11 26.5v140q1 28 16 45.5t38 19.5h21v38h-21q-36 0 -63.5 -28t-27.5 -76v-139z
M20 472l75 75l75 -75h-49l-27 27l-27 -27h-47z" />
    <glyph glyph-name="atilde" unicode="&#xe3;" horiz-adv-x="190" 
d="M20 477q-1 31 16.5 45t38.5 10l39 -17q23 -1 24 22h32q-2 -30 -18 -45t-38 -11l-40 17q-23 5 -23 -21h-31zM20 75q0 -31 22 -53t53 -22q24 0 37 14v-14h38v375q0 31 -22 53t-53 22t-53 -22t-22 -53v-37h37v37q0 16 11 27t27 11t26.5 -11t10.5 -27v-300q0 -16 -10.5 -26.5
t-26.5 -10.5t-27 10.5t-11 26.5v140q1 28 16 45.5t38 19.5h21v38h-21q-36 0 -63.5 -28t-27.5 -76v-139z" />
    <glyph glyph-name="adieresis" unicode="&#xe4;" horiz-adv-x="190" 
d="M20 75q0 -31 22 -53t53 -22q24 0 37 14v-14h38v375q0 31 -22 53t-53 22t-53 -22t-22 -53v-37h37v37q0 16 11 27t27 11t26.5 -11t10.5 -27v-300q0 -16 -10.5 -26.5t-26.5 -10.5t-27 10.5t-11 26.5v140q1 28 16 45.5t38 19.5h21v38h-21q-36 0 -63.5 -28t-27.5 -76v-139z
M70 497h-50v50h50v-50zM170 497h-50v50h50v-50z" />
    <glyph glyph-name="aring" unicode="&#xe5;" horiz-adv-x="190" 
d="M151 535h-21q0 14 -11 24.5t-25 9.5q-16 0 -24.5 -10t-8.5 -25q0 -12 9 -22t25 -11q16 0 25.5 9.5t9.5 24.5h21q0 -23 -17 -40t-40 -17t-39.5 17t-16.5 40t16 39.5t40 16.5q22 0 39.5 -17t17.5 -39zM20 75q0 -31 22 -53t53 -22q24 0 37 14v-14h38v375q0 31 -22 53t-53 22
t-53 -22t-22 -53v-37h37v37q0 16 11 27t27 11t26.5 -11t10.5 -27v-300q0 -16 -10.5 -26.5t-26.5 -10.5t-27 10.5t-11 26.5v140q1 28 16 45.5t38 19.5h21v38h-21q-36 0 -63.5 -28t-27.5 -76v-139z" />
    <glyph glyph-name="ae" unicode="&#xe6;" horiz-adv-x="300" 
d="M19 75q0 -31 22 -53t53 -22t52 22.5t23 52.5v300q0 31 -22 53t-53 22t-53 -22t-22 -53v-37h37v37q0 16 11 27t27 11t26.5 -11t10.5 -27v-300q0 -16 -10.5 -26.5t-26.5 -10.5t-27 10.5t-11 26.5v140q1 28 16 45.5t38 19.5h21v38h-21q-36 0 -63.5 -28t-27.5 -76v-139z
M281 375q0 31 -22 53t-53 22t-53 -22t-22 -53v-300q0 -31 22 -53t53 -22t53 22t22 53v37h-37v-37q0 -16 -11 -27t-27 -11t-26.5 11t-10.5 27v300q0 16 10.5 26.5t26.5 10.5t27 -10.5t11 -26.5v-137h-75v-38h112v175z" />
    <glyph glyph-name="ccedilla" unicode="&#xe7;" horiz-adv-x="190" 
d="M31 -108l15 31h61q19 1 19 17q-1 16 -20 16h-24v44h25v-17h4q18 0 32.5 -10t15.5 -35q0 -22 -13.5 -34t-33.5 -12h-81zM170 75q0 -31 -22 -53t-53 -22t-53 22t-22 53v300q0 31 22 53t53 22t53 -22t22 -53v-37h-37v37q0 16 -11 27t-27 11t-26.5 -11t-10.5 -27v-300
q0 -16 10.5 -26.5t26.5 -10.5t27 10.5t11 26.5v38h37v-38z" />
    <glyph glyph-name="egrave" unicode="&#xe8;" horiz-adv-x="190" 
d="M170 375q0 31 -22 53t-53 22t-53 -22t-22 -53v-300q0 -31 22 -53t53 -22t53 22t22 53v37h-37v-37q0 -16 -11 -27t-27 -11t-26.5 11t-10.5 27v300q0 16 10.5 26.5t26.5 10.5t27 -10.5t11 -26.5v-137h-75v-38h112v175zM141 480h-28l-63 75h55z" />
    <glyph glyph-name="eacute" unicode="&#xe9;" horiz-adv-x="190" 
d="M170 375q0 31 -22 53t-53 22t-53 -22t-22 -53v-300q0 -31 22 -53t53 -22t53 22t22 53v37h-37v-37q0 -16 -11 -27t-27 -11t-26.5 11t-10.5 27v300q0 16 10.5 26.5t26.5 10.5t27 -10.5t11 -26.5v-137h-75v-38h112v175zM50 480h28l63 75h-55z" />
    <glyph glyph-name="ecircumflex" unicode="&#xea;" horiz-adv-x="190" 
d="M170 375q0 31 -22 53t-53 22t-53 -22t-22 -53v-300q0 -31 22 -53t53 -22t53 22t22 53v37h-37v-37q0 -16 -11 -27t-27 -11t-26.5 11t-10.5 27v300q0 16 10.5 26.5t26.5 10.5t27 -10.5t11 -26.5v-137h-75v-38h112v175zM20 472l75 75l75 -75h-49l-27 27l-27 -27h-47z" />
    <glyph glyph-name="edieresis" unicode="&#xeb;" horiz-adv-x="190" 
d="M170 375q0 31 -22 53t-53 22t-53 -22t-22 -53v-300q0 -31 22 -53t53 -22t53 22t22 53v37h-37v-37q0 -16 -11 -27t-27 -11t-26.5 11t-10.5 27v300q0 16 10.5 26.5t26.5 10.5t27 -10.5t11 -26.5v-137h-75v-38h112v175zM70 497h-50v50h50v-50zM170 497h-50v50h50v-50z" />
    <glyph glyph-name="igrave" unicode="&#xec;" horiz-adv-x="78" 
d="M58 0h-38v450h38v-450zM57 479h-28l-63 75h55z" />
    <glyph glyph-name="iacute" unicode="&#xed;" horiz-adv-x="78" 
d="M58 0h-38v450h38v-450zM20 479h28l63 75h-55z" />
    <glyph glyph-name="icircumflex" unicode="&#xee;" horiz-adv-x="78" 
d="M-36 472l75 75l75 -75h-49l-27 27l-27 -27h-47zM58 0h-38v450h38v-450z" />
    <glyph glyph-name="idieresis" unicode="&#xef;" horiz-adv-x="78" 
d="M14 497h-50v50h50v-50zM114 497h-50v50h50v-50zM58 0h-38v450h38v-450z" />
    <glyph glyph-name="eth" unicode="&#xf0;" horiz-adv-x="190" 
d="M170 75q0 -31 -22 -53t-53 -22t-53 22t-22 53v300q0 31 22 53t53 22q21 1 38 -10q-21 87 -94 129l16 31q115 -70 115 -196v-329zM133 75v300q0 16 -11 27t-27 11t-26.5 -11t-10.5 -27v-300q0 -16 10.5 -26.5t26.5 -10.5t27 10.5t11 26.5zM37 509l115 83l18 -29l-115 -81z
" />
    <glyph glyph-name="ntilde" unicode="&#xf1;" horiz-adv-x="190" 
d="M20 450h37v-16q14 16 38 16q31 0 53 -22t22 -53v-375h-38v375q0 16 -10.5 26.5t-26.5 10.5t-27 -10.5t-11 -28.5v-373h-37v450zM20 477q-1 31 16.5 45t38.5 10l39 -17q23 -1 24 22h32q-2 -30 -18 -45t-38 -11l-40 17q-23 5 -23 -21h-31z" />
    <glyph glyph-name="ograve" unicode="&#xf2;" horiz-adv-x="190" 
d="M170 75q0 -31 -22 -53t-53 -22t-53 22t-22 53v300q0 31 22 53t53 22t53 -22t22 -53v-300zM133 75v300q0 16 -11 27t-27 11t-26.5 -11t-10.5 -27v-300q0 -16 10.5 -26.5t26.5 -10.5t27 10.5t11 26.5zM141 480h-28l-63 75h55z" />
    <glyph glyph-name="oacute" unicode="&#xf3;" horiz-adv-x="190" 
d="M170 75q0 -31 -22 -53t-53 -22t-53 22t-22 53v300q0 31 22 53t53 22t53 -22t22 -53v-300zM133 75v300q0 16 -11 27t-27 11t-26.5 -11t-10.5 -27v-300q0 -16 10.5 -26.5t26.5 -10.5t27 10.5t11 26.5zM50 480h28l63 75h-55z" />
    <glyph glyph-name="ocircumflex" unicode="&#xf4;" horiz-adv-x="190" 
d="M170 75q0 -31 -22 -53t-53 -22t-53 22t-22 53v300q0 31 22 53t53 22t53 -22t22 -53v-300zM133 75v300q0 16 -11 27t-27 11t-26.5 -11t-10.5 -27v-300q0 -16 10.5 -26.5t26.5 -10.5t27 10.5t11 26.5zM20 472l75 75l75 -75h-49l-27 27l-27 -27h-47z" />
    <glyph glyph-name="otilde" unicode="&#xf5;" horiz-adv-x="190" 
d="M170 75q0 -31 -22 -53t-53 -22t-53 22t-22 53v300q0 31 22 53t53 22t53 -22t22 -53v-300zM133 75v300q0 16 -11 27t-27 11t-26.5 -11t-10.5 -27v-300q0 -16 10.5 -26.5t26.5 -10.5t27 10.5t11 26.5zM20 477q-1 31 16.5 45t38.5 10l39 -17q23 -1 24 22h32q-2 -30 -18 -45
t-38 -11l-40 17q-23 5 -23 -21h-31z" />
    <glyph glyph-name="odieresis" unicode="&#xf6;" horiz-adv-x="190" 
d="M170 75q0 -31 -22 -53t-53 -22t-53 22t-22 53v300q0 31 22 53t53 22t53 -22t22 -53v-300zM133 75v300q0 16 -11 27t-27 11t-26.5 -11t-10.5 -27v-300q0 -16 10.5 -26.5t26.5 -10.5t27 10.5t11 26.5zM70 497h-50v50h50v-50zM170 497h-50v50h50v-50z" />
    <glyph glyph-name="divide" unicode="&#xf7;" 
d="M145 327h-50v50h50v-50zM145 173h-50v50h50v-50zM222 250h-204v50h204v-50z" />
    <glyph glyph-name="oslash" unicode="&#xf8;" horiz-adv-x="190" 
d="M170 75q0 -31 -22 -53t-53 -22t-53 22t-22 53v300q0 31 22 53t53 22t53 -22t22 -53v-300zM133 75v300q0 16 -11 27t-27 11t-26.5 -11t-10.5 -27v-300q0 -16 10.5 -26.5t26.5 -10.5t27 10.5t11 26.5zM20 0l115 450h35l-115 -450h-35z" />
    <glyph glyph-name="ugrave" unicode="&#xf9;" horiz-adv-x="190" 
d="M170 0h-37v16q-14 -16 -38 -16q-31 0 -53 22t-22 53v375h38v-375q0 -16 10.5 -26.5t26.5 -10.5t27 10.5t11 28.5v373h37v-450zM141 480h-28l-63 75h55z" />
    <glyph glyph-name="uacute" unicode="&#xfa;" horiz-adv-x="190" 
d="M170 0h-37v16q-14 -16 -38 -16q-31 0 -53 22t-22 53v375h38v-375q0 -16 10.5 -26.5t26.5 -10.5t27 10.5t11 28.5v373h37v-450zM50 480h28l63 75h-55z" />
    <glyph glyph-name="ucircumflex" unicode="&#xfb;" horiz-adv-x="190" 
d="M170 0h-37v16q-14 -16 -38 -16q-31 0 -53 22t-22 53v375h38v-375q0 -16 10.5 -26.5t26.5 -10.5t27 10.5t11 28.5v373h37v-450zM20 472l75 75l75 -75h-49l-27 27l-27 -27h-47z" />
    <glyph glyph-name="udieresis" unicode="&#xfc;" horiz-adv-x="190" 
d="M170 0h-37v16q-14 -16 -38 -16q-31 0 -53 22t-22 53v375h38v-375q0 -16 10.5 -26.5t26.5 -10.5t27 10.5t11 28.5v373h37v-450zM170 497h-50v50h50v-50zM70 497h-50v50h50v-50z" />
    <glyph glyph-name="yacute" unicode="&#xfd;" horiz-adv-x="228" 
d="M68 479h28l63 75h-55zM208 450l-102 -600h-37l26 150l-75 450h38l56 -337l56 337h38z" />
    <glyph glyph-name="thorn" unicode="&#xfe;" horiz-adv-x="190" 
d="M20 375v-37h38v36q-1 17 10 27.5t27 10.5t26.5 -10.5t10.5 -26.5v-300q0 -16 -10.5 -27t-26.5 -11t-27 11t-10 26v38h-38v-37q0 -31 22 -53t53 -22t53 22t22 53v300q0 31 -22 53t-53 22t-53 -22t-22 -53zM58 599h-38v-749h38v749z" />
    <glyph glyph-name="ydieresis" unicode="&#xff;" horiz-adv-x="228" 
d="M89 497h-50v50h50v-50zM189 497h-50v50h50v-50zM208 450l-102 -600h-37l26 150l-75 450h38l56 -337l56 337h38z" />
  </font>
</defs>
</svg>
